<?xml version="1.0" encoding="utf-8" standalone="no"?>
<!DOCTYPE svg PUBLIC "-//W3C//DTD SVG 1.1//EN"
  "http://www.w3.org/Graphics/SVG/1.1/DTD/svg11.dtd">
<!-- Created with matplotlib (http://matplotlib.org/) -->
<svg height="288pt" version="1.1" viewBox="0 0 432 288" width="432pt" xmlns="http://www.w3.org/2000/svg" xmlns:xlink="http://www.w3.org/1999/xlink">
 <defs>
  <style type="text/css">
*{stroke-linecap:butt;stroke-linejoin:round;}
  </style>
 </defs>
 <g id="figure_1">
  <g id="patch_1">
   <path d="M 0 288 
L 432 288 
L 432 0 
L 0 0 
z
" style="fill:#ffffff;"/>
  </g>
  <g id="patch_2">
   <path d="M 0 288 
L 432 288 
L 432 0 
L 0 0 
z
" style="fill:#ffffff;"/>
  </g>
  <g id="pane3d_1">
   <g id="patch_3">
    <path d="M 57.268276 224.36215 
L 180.908936 153.751075 
L 178.85045 18.824902 
L 48.316013 82.2675 
" style="fill:#f2f2f2;opacity:0.5;stroke:#f2f2f2;stroke-linejoin:miter;"/>
   </g>
  </g>
  <g id="pane3d_2">
   <g id="patch_4">
    <path d="M 180.908936 153.751075 
L 381.195181 193.227223 
L 389.574918 54.232405 
L 178.85045 18.824902 
" style="fill:#e6e6e6;opacity:0.5;stroke:#e6e6e6;stroke-linejoin:miter;"/>
   </g>
  </g>
  <g id="pane3d_3">
   <g id="patch_5">
    <path d="M 57.268276 224.36215 
L 267.996469 270.338555 
L 381.195181 193.227223 
L 180.908936 153.751075 
" style="fill:#ececec;opacity:0.5;stroke:#ececec;stroke-linejoin:miter;"/>
   </g>
  </g>
  <g id="axis3d_1">
   <g id="line2d_1">
    <path d="M 57.268276 224.36215 
L 267.996469 270.338555 
" style="fill:none;stroke:#000000;stroke-linecap:square;stroke-width:0.8;"/>
   </g>
   <g id="text_1">
    <!-- Bedrooms (normalized) -->
    <defs>
     <path d="M 19.671875 34.8125 
L 19.671875 8.109375 
L 35.5 8.109375 
Q 43.453125 8.109375 47.28125 11.40625 
Q 51.125 14.703125 51.125 21.484375 
Q 51.125 28.328125 47.28125 31.5625 
Q 43.453125 34.8125 35.5 34.8125 
z
M 19.671875 64.796875 
L 19.671875 42.828125 
L 34.28125 42.828125 
Q 41.5 42.828125 45.03125 45.53125 
Q 48.578125 48.25 48.578125 53.8125 
Q 48.578125 59.328125 45.03125 62.0625 
Q 41.5 64.796875 34.28125 64.796875 
z
M 9.8125 72.90625 
L 35.015625 72.90625 
Q 46.296875 72.90625 52.390625 68.21875 
Q 58.5 63.53125 58.5 54.890625 
Q 58.5 48.1875 55.375 44.234375 
Q 52.25 40.28125 46.1875 39.3125 
Q 53.46875 37.75 57.5 32.78125 
Q 61.53125 27.828125 61.53125 20.40625 
Q 61.53125 10.640625 54.890625 5.3125 
Q 48.25 0 35.984375 0 
L 9.8125 0 
z
" id="DejaVuSans-42"/>
     <path d="M 56.203125 29.59375 
L 56.203125 25.203125 
L 14.890625 25.203125 
Q 15.484375 15.921875 20.484375 11.0625 
Q 25.484375 6.203125 34.421875 6.203125 
Q 39.59375 6.203125 44.453125 7.46875 
Q 49.3125 8.734375 54.109375 11.28125 
L 54.109375 2.78125 
Q 49.265625 0.734375 44.1875 -0.34375 
Q 39.109375 -1.421875 33.890625 -1.421875 
Q 20.796875 -1.421875 13.15625 6.1875 
Q 5.515625 13.8125 5.515625 26.8125 
Q 5.515625 40.234375 12.765625 48.109375 
Q 20.015625 56 32.328125 56 
Q 43.359375 56 49.78125 48.890625 
Q 56.203125 41.796875 56.203125 29.59375 
z
M 47.21875 32.234375 
Q 47.125 39.59375 43.09375 43.984375 
Q 39.0625 48.390625 32.421875 48.390625 
Q 24.90625 48.390625 20.390625 44.140625 
Q 15.875 39.890625 15.1875 32.171875 
z
" id="DejaVuSans-65"/>
     <path d="M 45.40625 46.390625 
L 45.40625 75.984375 
L 54.390625 75.984375 
L 54.390625 0 
L 45.40625 0 
L 45.40625 8.203125 
Q 42.578125 3.328125 38.25 0.953125 
Q 33.9375 -1.421875 27.875 -1.421875 
Q 17.96875 -1.421875 11.734375 6.484375 
Q 5.515625 14.40625 5.515625 27.296875 
Q 5.515625 40.1875 11.734375 48.09375 
Q 17.96875 56 27.875 56 
Q 33.9375 56 38.25 53.625 
Q 42.578125 51.265625 45.40625 46.390625 
z
M 14.796875 27.296875 
Q 14.796875 17.390625 18.875 11.75 
Q 22.953125 6.109375 30.078125 6.109375 
Q 37.203125 6.109375 41.296875 11.75 
Q 45.40625 17.390625 45.40625 27.296875 
Q 45.40625 37.203125 41.296875 42.84375 
Q 37.203125 48.484375 30.078125 48.484375 
Q 22.953125 48.484375 18.875 42.84375 
Q 14.796875 37.203125 14.796875 27.296875 
z
" id="DejaVuSans-64"/>
     <path d="M 41.109375 46.296875 
Q 39.59375 47.171875 37.8125 47.578125 
Q 36.03125 48 33.890625 48 
Q 26.265625 48 22.1875 43.046875 
Q 18.109375 38.09375 18.109375 28.8125 
L 18.109375 0 
L 9.078125 0 
L 9.078125 54.6875 
L 18.109375 54.6875 
L 18.109375 46.1875 
Q 20.953125 51.171875 25.484375 53.578125 
Q 30.03125 56 36.53125 56 
Q 37.453125 56 38.578125 55.875 
Q 39.703125 55.765625 41.0625 55.515625 
z
" id="DejaVuSans-72"/>
     <path d="M 30.609375 48.390625 
Q 23.390625 48.390625 19.1875 42.75 
Q 14.984375 37.109375 14.984375 27.296875 
Q 14.984375 17.484375 19.15625 11.84375 
Q 23.34375 6.203125 30.609375 6.203125 
Q 37.796875 6.203125 41.984375 11.859375 
Q 46.1875 17.53125 46.1875 27.296875 
Q 46.1875 37.015625 41.984375 42.703125 
Q 37.796875 48.390625 30.609375 48.390625 
z
M 30.609375 56 
Q 42.328125 56 49.015625 48.375 
Q 55.71875 40.765625 55.71875 27.296875 
Q 55.71875 13.875 49.015625 6.21875 
Q 42.328125 -1.421875 30.609375 -1.421875 
Q 18.84375 -1.421875 12.171875 6.21875 
Q 5.515625 13.875 5.515625 27.296875 
Q 5.515625 40.765625 12.171875 48.375 
Q 18.84375 56 30.609375 56 
z
" id="DejaVuSans-6f"/>
     <path d="M 52 44.1875 
Q 55.375 50.25 60.0625 53.125 
Q 64.75 56 71.09375 56 
Q 79.640625 56 84.28125 50.015625 
Q 88.921875 44.046875 88.921875 33.015625 
L 88.921875 0 
L 79.890625 0 
L 79.890625 32.71875 
Q 79.890625 40.578125 77.09375 44.375 
Q 74.3125 48.1875 68.609375 48.1875 
Q 61.625 48.1875 57.5625 43.546875 
Q 53.515625 38.921875 53.515625 30.90625 
L 53.515625 0 
L 44.484375 0 
L 44.484375 32.71875 
Q 44.484375 40.625 41.703125 44.40625 
Q 38.921875 48.1875 33.109375 48.1875 
Q 26.21875 48.1875 22.15625 43.53125 
Q 18.109375 38.875 18.109375 30.90625 
L 18.109375 0 
L 9.078125 0 
L 9.078125 54.6875 
L 18.109375 54.6875 
L 18.109375 46.1875 
Q 21.1875 51.21875 25.484375 53.609375 
Q 29.78125 56 35.6875 56 
Q 41.65625 56 45.828125 52.96875 
Q 50 49.953125 52 44.1875 
z
" id="DejaVuSans-6d"/>
     <path d="M 44.28125 53.078125 
L 44.28125 44.578125 
Q 40.484375 46.53125 36.375 47.5 
Q 32.28125 48.484375 27.875 48.484375 
Q 21.1875 48.484375 17.84375 46.4375 
Q 14.5 44.390625 14.5 40.28125 
Q 14.5 37.15625 16.890625 35.375 
Q 19.28125 33.59375 26.515625 31.984375 
L 29.59375 31.296875 
Q 39.15625 29.25 43.1875 25.515625 
Q 47.21875 21.78125 47.21875 15.09375 
Q 47.21875 7.46875 41.1875 3.015625 
Q 35.15625 -1.421875 24.609375 -1.421875 
Q 20.21875 -1.421875 15.453125 -0.5625 
Q 10.6875 0.296875 5.421875 2 
L 5.421875 11.28125 
Q 10.40625 8.6875 15.234375 7.390625 
Q 20.0625 6.109375 24.8125 6.109375 
Q 31.15625 6.109375 34.5625 8.28125 
Q 37.984375 10.453125 37.984375 14.40625 
Q 37.984375 18.0625 35.515625 20.015625 
Q 33.0625 21.96875 24.703125 23.78125 
L 21.578125 24.515625 
Q 13.234375 26.265625 9.515625 29.90625 
Q 5.8125 33.546875 5.8125 39.890625 
Q 5.8125 47.609375 11.28125 51.796875 
Q 16.75 56 26.8125 56 
Q 31.78125 56 36.171875 55.265625 
Q 40.578125 54.546875 44.28125 53.078125 
z
" id="DejaVuSans-73"/>
     <path id="DejaVuSans-20"/>
     <path d="M 31 75.875 
Q 24.46875 64.65625 21.28125 53.65625 
Q 18.109375 42.671875 18.109375 31.390625 
Q 18.109375 20.125 21.3125 9.0625 
Q 24.515625 -2 31 -13.1875 
L 23.1875 -13.1875 
Q 15.875 -1.703125 12.234375 9.375 
Q 8.59375 20.453125 8.59375 31.390625 
Q 8.59375 42.28125 12.203125 53.3125 
Q 15.828125 64.359375 23.1875 75.875 
z
" id="DejaVuSans-28"/>
     <path d="M 54.890625 33.015625 
L 54.890625 0 
L 45.90625 0 
L 45.90625 32.71875 
Q 45.90625 40.484375 42.875 44.328125 
Q 39.84375 48.1875 33.796875 48.1875 
Q 26.515625 48.1875 22.3125 43.546875 
Q 18.109375 38.921875 18.109375 30.90625 
L 18.109375 0 
L 9.078125 0 
L 9.078125 54.6875 
L 18.109375 54.6875 
L 18.109375 46.1875 
Q 21.34375 51.125 25.703125 53.5625 
Q 30.078125 56 35.796875 56 
Q 45.21875 56 50.046875 50.171875 
Q 54.890625 44.34375 54.890625 33.015625 
z
" id="DejaVuSans-6e"/>
     <path d="M 34.28125 27.484375 
Q 23.390625 27.484375 19.1875 25 
Q 14.984375 22.515625 14.984375 16.5 
Q 14.984375 11.71875 18.140625 8.90625 
Q 21.296875 6.109375 26.703125 6.109375 
Q 34.1875 6.109375 38.703125 11.40625 
Q 43.21875 16.703125 43.21875 25.484375 
L 43.21875 27.484375 
z
M 52.203125 31.203125 
L 52.203125 0 
L 43.21875 0 
L 43.21875 8.296875 
Q 40.140625 3.328125 35.546875 0.953125 
Q 30.953125 -1.421875 24.3125 -1.421875 
Q 15.921875 -1.421875 10.953125 3.296875 
Q 6 8.015625 6 15.921875 
Q 6 25.140625 12.171875 29.828125 
Q 18.359375 34.515625 30.609375 34.515625 
L 43.21875 34.515625 
L 43.21875 35.40625 
Q 43.21875 41.609375 39.140625 45 
Q 35.0625 48.390625 27.6875 48.390625 
Q 23 48.390625 18.546875 47.265625 
Q 14.109375 46.140625 10.015625 43.890625 
L 10.015625 52.203125 
Q 14.9375 54.109375 19.578125 55.046875 
Q 24.21875 56 28.609375 56 
Q 40.484375 56 46.34375 49.84375 
Q 52.203125 43.703125 52.203125 31.203125 
z
" id="DejaVuSans-61"/>
     <path d="M 9.421875 75.984375 
L 18.40625 75.984375 
L 18.40625 0 
L 9.421875 0 
z
" id="DejaVuSans-6c"/>
     <path d="M 9.421875 54.6875 
L 18.40625 54.6875 
L 18.40625 0 
L 9.421875 0 
z
M 9.421875 75.984375 
L 18.40625 75.984375 
L 18.40625 64.59375 
L 9.421875 64.59375 
z
" id="DejaVuSans-69"/>
     <path d="M 5.515625 54.6875 
L 48.1875 54.6875 
L 48.1875 46.484375 
L 14.40625 7.171875 
L 48.1875 7.171875 
L 48.1875 0 
L 4.296875 0 
L 4.296875 8.203125 
L 38.09375 47.515625 
L 5.515625 47.515625 
z
" id="DejaVuSans-7a"/>
     <path d="M 8.015625 75.875 
L 15.828125 75.875 
Q 23.140625 64.359375 26.78125 53.3125 
Q 30.421875 42.28125 30.421875 31.390625 
Q 30.421875 20.453125 26.78125 9.375 
Q 23.140625 -1.703125 15.828125 -13.1875 
L 8.015625 -13.1875 
Q 14.5 -2 17.703125 9.0625 
Q 20.90625 20.125 20.90625 31.390625 
Q 20.90625 42.671875 17.703125 53.65625 
Q 14.5 64.65625 8.015625 75.875 
z
" id="DejaVuSans-29"/>
    </defs>
    <g transform="translate(85.589956 265.945531)rotate(-347.692154)scale(0.1 -0.1)">
     <use xlink:href="#DejaVuSans-42"/>
     <use x="68.603516" xlink:href="#DejaVuSans-65"/>
     <use x="130.126953" xlink:href="#DejaVuSans-64"/>
     <use x="193.603516" xlink:href="#DejaVuSans-72"/>
     <use x="234.685547" xlink:href="#DejaVuSans-6f"/>
     <use x="295.867188" xlink:href="#DejaVuSans-6f"/>
     <use x="357.048828" xlink:href="#DejaVuSans-6d"/>
     <use x="454.460938" xlink:href="#DejaVuSans-73"/>
     <use x="506.560547" xlink:href="#DejaVuSans-20"/>
     <use x="538.347656" xlink:href="#DejaVuSans-28"/>
     <use x="577.361328" xlink:href="#DejaVuSans-6e"/>
     <use x="640.740234" xlink:href="#DejaVuSans-6f"/>
     <use x="701.921875" xlink:href="#DejaVuSans-72"/>
     <use x="743.019531" xlink:href="#DejaVuSans-6d"/>
     <use x="840.431641" xlink:href="#DejaVuSans-61"/>
     <use x="901.710938" xlink:href="#DejaVuSans-6c"/>
     <use x="929.494141" xlink:href="#DejaVuSans-69"/>
     <use x="957.277344" xlink:href="#DejaVuSans-7a"/>
     <use x="1009.767578" xlink:href="#DejaVuSans-65"/>
     <use x="1071.291016" xlink:href="#DejaVuSans-64"/>
     <use x="1134.767578" xlink:href="#DejaVuSans-29"/>
    </g>
   </g>
   <g id="Line3DCollection_1">
    <path d="M 65.141285 226.079873 
L 188.416019 155.230711 
L 186.732233 20.149258 
" style="fill:none;stroke:#b0b0b0;stroke-width:0.8;"/>
    <path d="M 98.933788 233.452677 
L 220.616509 161.577384 
L 220.55453 25.832333 
" style="fill:none;stroke:#b0b0b0;stroke-width:0.8;"/>
    <path d="M 133.236107 240.936713 
L 253.267358 168.012822 
L 254.87405 31.598956 
" style="fill:none;stroke:#b0b0b0;stroke-width:0.8;"/>
    <path d="M 168.059868 248.534517 
L 286.378079 174.5389 
L 289.70184 37.450982 
" style="fill:none;stroke:#b0b0b0;stroke-width:0.8;"/>
    <path d="M 203.417051 256.248701 
L 319.958459 181.157548 
L 325.049274 43.390323 
" style="fill:none;stroke:#b0b0b0;stroke-width:0.8;"/>
    <path d="M 239.320007 264.081962 
L 354.01856 187.870747 
L 360.92807 49.418947 
" style="fill:none;stroke:#b0b0b0;stroke-width:0.8;"/>
   </g>
   <g id="xtick_1">
    <g id="line2d_2">
     <path d="M 66.203277 225.469519 
L 63.013345 227.302855 
" style="fill:none;stroke:#000000;stroke-linecap:square;stroke-width:0.8;"/>
    </g>
    <g id="text_2">
     <!-- −3 -->
     <defs>
      <path d="M 10.59375 35.5 
L 73.1875 35.5 
L 73.1875 27.203125 
L 10.59375 27.203125 
z
" id="DejaVuSans-2212"/>
      <path d="M 40.578125 39.3125 
Q 47.65625 37.796875 51.625 33 
Q 55.609375 28.21875 55.609375 21.1875 
Q 55.609375 10.40625 48.1875 4.484375 
Q 40.765625 -1.421875 27.09375 -1.421875 
Q 22.515625 -1.421875 17.65625 -0.515625 
Q 12.796875 0.390625 7.625 2.203125 
L 7.625 11.71875 
Q 11.71875 9.328125 16.59375 8.109375 
Q 21.484375 6.890625 26.8125 6.890625 
Q 36.078125 6.890625 40.9375 10.546875 
Q 45.796875 14.203125 45.796875 21.1875 
Q 45.796875 27.640625 41.28125 31.265625 
Q 36.765625 34.90625 28.71875 34.90625 
L 20.21875 34.90625 
L 20.21875 43.015625 
L 29.109375 43.015625 
Q 36.375 43.015625 40.234375 45.921875 
Q 44.09375 48.828125 44.09375 54.296875 
Q 44.09375 59.90625 40.109375 62.90625 
Q 36.140625 65.921875 28.71875 65.921875 
Q 24.65625 65.921875 20.015625 65.03125 
Q 15.375 64.15625 9.8125 62.3125 
L 9.8125 71.09375 
Q 15.4375 72.65625 20.34375 73.4375 
Q 25.25 74.21875 29.59375 74.21875 
Q 40.828125 74.21875 47.359375 69.109375 
Q 53.90625 64.015625 53.90625 55.328125 
Q 53.90625 49.265625 50.4375 45.09375 
Q 46.96875 40.921875 40.578125 39.3125 
z
" id="DejaVuSans-33"/>
     </defs>
     <g transform="translate(50.107759 246.65567)scale(0.1 -0.1)">
      <use xlink:href="#DejaVuSans-2212"/>
      <use x="83.789062" xlink:href="#DejaVuSans-33"/>
     </g>
    </g>
   </g>
   <g id="xtick_2">
    <g id="line2d_3">
     <path d="M 99.982624 232.833153 
L 96.832177 234.694052 
" style="fill:none;stroke:#000000;stroke-linecap:square;stroke-width:0.8;"/>
    </g>
    <g id="text_3">
     <!-- −2 -->
     <defs>
      <path d="M 19.1875 8.296875 
L 53.609375 8.296875 
L 53.609375 0 
L 7.328125 0 
L 7.328125 8.296875 
Q 12.9375 14.109375 22.625 23.890625 
Q 32.328125 33.6875 34.8125 36.53125 
Q 39.546875 41.84375 41.421875 45.53125 
Q 43.3125 49.21875 43.3125 52.78125 
Q 43.3125 58.59375 39.234375 62.25 
Q 35.15625 65.921875 28.609375 65.921875 
Q 23.96875 65.921875 18.8125 64.3125 
Q 13.671875 62.703125 7.8125 59.421875 
L 7.8125 69.390625 
Q 13.765625 71.78125 18.9375 73 
Q 24.125 74.21875 28.421875 74.21875 
Q 39.75 74.21875 46.484375 68.546875 
Q 53.21875 62.890625 53.21875 53.421875 
Q 53.21875 48.921875 51.53125 44.890625 
Q 49.859375 40.875 45.40625 35.40625 
Q 44.1875 33.984375 37.640625 27.21875 
Q 31.109375 20.453125 19.1875 8.296875 
z
" id="DejaVuSans-32"/>
     </defs>
     <g transform="translate(83.896847 254.137581)scale(0.1 -0.1)">
      <use xlink:href="#DejaVuSans-2212"/>
      <use x="83.789062" xlink:href="#DejaVuSans-32"/>
     </g>
    </g>
   </g>
   <g id="xtick_3">
    <g id="line2d_4">
     <path d="M 134.271269 240.30781 
L 131.161867 242.196899 
" style="fill:none;stroke:#000000;stroke-linecap:square;stroke-width:0.8;"/>
    </g>
    <g id="text_4">
     <!-- −1 -->
     <defs>
      <path d="M 12.40625 8.296875 
L 28.515625 8.296875 
L 28.515625 63.921875 
L 10.984375 60.40625 
L 10.984375 69.390625 
L 28.421875 72.90625 
L 38.28125 72.90625 
L 38.28125 8.296875 
L 54.390625 8.296875 
L 54.390625 0 
L 12.40625 0 
z
" id="DejaVuSans-31"/>
     </defs>
     <g transform="translate(118.196522 261.732552)scale(0.1 -0.1)">
      <use xlink:href="#DejaVuSans-2212"/>
      <use x="83.789062" xlink:href="#DejaVuSans-31"/>
     </g>
    </g>
   </g>
   <g id="xtick_4">
    <g id="line2d_5">
     <path d="M 169.080818 247.89602 
L 166.014077 249.813944 
" style="fill:none;stroke:#000000;stroke-linecap:square;stroke-width:0.8;"/>
    </g>
    <g id="text_5">
     <!-- 0 -->
     <defs>
      <path d="M 31.78125 66.40625 
Q 24.171875 66.40625 20.328125 58.90625 
Q 16.5 51.421875 16.5 36.375 
Q 16.5 21.390625 20.328125 13.890625 
Q 24.171875 6.390625 31.78125 6.390625 
Q 39.453125 6.390625 43.28125 13.890625 
Q 47.125 21.390625 47.125 36.375 
Q 47.125 51.421875 43.28125 58.90625 
Q 39.453125 66.40625 31.78125 66.40625 
z
M 31.78125 74.21875 
Q 44.046875 74.21875 50.515625 64.515625 
Q 56.984375 54.828125 56.984375 36.375 
Q 56.984375 17.96875 50.515625 8.265625 
Q 44.046875 -1.421875 31.78125 -1.421875 
Q 19.53125 -1.421875 13.0625 8.265625 
Q 6.59375 17.96875 6.59375 36.375 
Q 6.59375 54.828125 13.0625 64.515625 
Q 19.53125 74.21875 31.78125 74.21875 
z
" id="DejaVuSans-30"/>
     </defs>
     <g transform="translate(157.208289 269.443163)scale(0.1 -0.1)">
      <use xlink:href="#DejaVuSans-30"/>
     </g>
    </g>
   </g>
   <g id="xtick_5">
    <g id="line2d_6">
     <path d="M 204.42323 255.60039 
L 201.400829 257.547814 
" style="fill:none;stroke:#000000;stroke-linecap:square;stroke-width:0.8;"/>
    </g>
    <g id="text_6">
     <!-- 1 -->
     <g transform="translate(192.564479 277.272077)scale(0.1 -0.1)">
      <use xlink:href="#DejaVuSans-31"/>
     </g>
    </g>
   </g>
   <g id="xtick_6">
    <g id="line2d_7">
     <path d="M 240.310836 263.423608 
L 237.334515 265.401218 
" style="fill:none;stroke:#000000;stroke-linecap:square;stroke-width:0.8;"/>
    </g>
    <g id="text_7">
     <!-- 2 -->
     <g transform="translate(228.467326 285.222038)scale(0.1 -0.1)">
      <use xlink:href="#DejaVuSans-32"/>
     </g>
    </g>
   </g>
  </g>
  <g id="axis3d_2">
   <g id="line2d_8">
    <path d="M 381.195181 193.227223 
L 267.996469 270.338555 
" style="fill:none;stroke:#000000;stroke-linecap:square;stroke-width:0.8;"/>
   </g>
   <g id="text_8">
    <!-- Area (normalized) -->
    <defs>
     <path d="M 34.1875 63.1875 
L 20.796875 26.90625 
L 47.609375 26.90625 
z
M 28.609375 72.90625 
L 39.796875 72.90625 
L 67.578125 0 
L 57.328125 0 
L 50.6875 18.703125 
L 17.828125 18.703125 
L 11.1875 0 
L 0.78125 0 
z
" id="DejaVuSans-41"/>
    </defs>
    <g transform="translate(319.048201 281.824059)rotate(-34.262819)scale(0.1 -0.1)">
     <use xlink:href="#DejaVuSans-41"/>
     <use x="68.408203" xlink:href="#DejaVuSans-72"/>
     <use x="109.490234" xlink:href="#DejaVuSans-65"/>
     <use x="171.013672" xlink:href="#DejaVuSans-61"/>
     <use x="232.292969" xlink:href="#DejaVuSans-20"/>
     <use x="264.080078" xlink:href="#DejaVuSans-28"/>
     <use x="303.09375" xlink:href="#DejaVuSans-6e"/>
     <use x="366.472656" xlink:href="#DejaVuSans-6f"/>
     <use x="427.654297" xlink:href="#DejaVuSans-72"/>
     <use x="468.751953" xlink:href="#DejaVuSans-6d"/>
     <use x="566.164062" xlink:href="#DejaVuSans-61"/>
     <use x="627.443359" xlink:href="#DejaVuSans-6c"/>
     <use x="655.226562" xlink:href="#DejaVuSans-69"/>
     <use x="683.009766" xlink:href="#DejaVuSans-7a"/>
     <use x="735.5" xlink:href="#DejaVuSans-65"/>
     <use x="797.023438" xlink:href="#DejaVuSans-64"/>
     <use x="860.5" xlink:href="#DejaVuSans-29"/>
    </g>
   </g>
   <g id="Line3DCollection_2">
    <path d="M 69.077111 72.177151 
L 76.868535 213.168458 
L 285.992108 258.079867 
" style="fill:none;stroke:#b0b0b0;stroke-width:0.8;"/>
    <path d="M 95.037735 59.559719 
L 101.411785 199.151829 
L 308.499074 242.748048 
" style="fill:none;stroke:#b0b0b0;stroke-width:0.8;"/>
    <path d="M 120.22168 47.319769 
L 125.257147 185.533764 
L 330.337358 227.871738 
" style="fill:none;stroke:#b0b0b0;stroke-width:0.8;"/>
    <path d="M 144.663288 35.440612 
L 148.433971 172.2975 
L 351.536322 213.430934 
" style="fill:none;stroke:#b0b0b0;stroke-width:0.8;"/>
    <path d="M 168.394905 23.906526 
L 170.969983 159.427203 
L 372.123637 199.406788 
" style="fill:none;stroke:#b0b0b0;stroke-width:0.8;"/>
   </g>
   <g id="xtick_7">
    <g id="line2d_9">
     <path d="M 284.242454 257.704111 
L 289.4953 258.832213 
" style="fill:none;stroke:#000000;stroke-linecap:square;stroke-width:0.8;"/>
    </g>
    <g id="text_9">
     <!-- −1 -->
     <g transform="translate(291.824234 276.993862)scale(0.1 -0.1)">
      <use xlink:href="#DejaVuSans-2212"/>
      <use x="83.789062" xlink:href="#DejaVuSans-31"/>
     </g>
    </g>
   </g>
   <g id="xtick_8">
    <g id="line2d_10">
     <path d="M 306.767601 242.383537 
L 311.965806 243.477868 
" style="fill:none;stroke:#000000;stroke-linecap:square;stroke-width:0.8;"/>
    </g>
    <g id="text_10">
     <!-- 0 -->
     <g transform="translate(318.312322 261.498108)scale(0.1 -0.1)">
      <use xlink:href="#DejaVuSans-30"/>
     </g>
    </g>
   </g>
   <g id="xtick_9">
    <g id="line2d_11">
     <path d="M 328.623766 227.517974 
L 333.768232 228.580028 
" style="fill:none;stroke:#000000;stroke-linecap:square;stroke-width:0.8;"/>
    </g>
    <g id="text_11">
     <!-- 1 -->
     <g transform="translate(339.948367 246.462538)scale(0.1 -0.1)">
      <use xlink:href="#DejaVuSans-31"/>
     </g>
    </g>
   </g>
   <g id="xtick_10">
    <g id="line2d_12">
     <path d="M 349.840314 213.087449 
L 354.931938 214.118633 
" style="fill:none;stroke:#000000;stroke-linecap:square;stroke-width:0.8;"/>
    </g>
    <g id="text_12">
     <!-- 2 -->
     <g transform="translate(360.951279 231.866951)scale(0.1 -0.1)">
      <use xlink:href="#DejaVuSans-32"/>
     </g>
    </g>
   </g>
   <g id="xtick_11">
    <g id="line2d_13">
     <path d="M 370.444919 199.07314 
L 375.484587 200.074781 
" style="fill:none;stroke:#000000;stroke-linecap:square;stroke-width:0.8;"/>
    </g>
    <g id="text_13">
     <!-- 3 -->
     <g transform="translate(381.348449 217.692314)scale(0.1 -0.1)">
      <use xlink:href="#DejaVuSans-33"/>
     </g>
    </g>
   </g>
  </g>
  <g id="axis3d_3">
   <g id="line2d_14">
    <path d="M 381.195181 193.227223 
L 389.574918 54.232405 
" style="fill:none;stroke:#000000;stroke-linecap:square;stroke-width:0.8;"/>
   </g>
   <g id="text_14">
    <!-- Price (normalized) -->
    <defs>
     <path d="M 19.671875 64.796875 
L 19.671875 37.40625 
L 32.078125 37.40625 
Q 38.96875 37.40625 42.71875 40.96875 
Q 46.484375 44.53125 46.484375 51.125 
Q 46.484375 57.671875 42.71875 61.234375 
Q 38.96875 64.796875 32.078125 64.796875 
z
M 9.8125 72.90625 
L 32.078125 72.90625 
Q 44.34375 72.90625 50.609375 67.359375 
Q 56.890625 61.8125 56.890625 51.125 
Q 56.890625 40.328125 50.609375 34.8125 
Q 44.34375 29.296875 32.078125 29.296875 
L 19.671875 29.296875 
L 19.671875 0 
L 9.8125 0 
z
" id="DejaVuSans-50"/>
     <path d="M 48.78125 52.59375 
L 48.78125 44.1875 
Q 44.96875 46.296875 41.140625 47.34375 
Q 37.3125 48.390625 33.40625 48.390625 
Q 24.65625 48.390625 19.8125 42.84375 
Q 14.984375 37.3125 14.984375 27.296875 
Q 14.984375 17.28125 19.8125 11.734375 
Q 24.65625 6.203125 33.40625 6.203125 
Q 37.3125 6.203125 41.140625 7.25 
Q 44.96875 8.296875 48.78125 10.40625 
L 48.78125 2.09375 
Q 45.015625 0.34375 40.984375 -0.53125 
Q 36.96875 -1.421875 32.421875 -1.421875 
Q 20.0625 -1.421875 12.78125 6.34375 
Q 5.515625 14.109375 5.515625 27.296875 
Q 5.515625 40.671875 12.859375 48.328125 
Q 20.21875 56 33.015625 56 
Q 37.15625 56 41.109375 55.140625 
Q 45.0625 54.296875 48.78125 52.59375 
z
" id="DejaVuSans-63"/>
    </defs>
    <g transform="translate(427.976394 167.425865)rotate(-86.549921)scale(0.1 -0.1)">
     <use xlink:href="#DejaVuSans-50"/>
     <use x="60.287109" xlink:href="#DejaVuSans-72"/>
     <use x="101.400391" xlink:href="#DejaVuSans-69"/>
     <use x="129.183594" xlink:href="#DejaVuSans-63"/>
     <use x="184.164062" xlink:href="#DejaVuSans-65"/>
     <use x="245.6875" xlink:href="#DejaVuSans-20"/>
     <use x="277.474609" xlink:href="#DejaVuSans-28"/>
     <use x="316.488281" xlink:href="#DejaVuSans-6e"/>
     <use x="379.867188" xlink:href="#DejaVuSans-6f"/>
     <use x="441.048828" xlink:href="#DejaVuSans-72"/>
     <use x="482.146484" xlink:href="#DejaVuSans-6d"/>
     <use x="579.558594" xlink:href="#DejaVuSans-61"/>
     <use x="640.837891" xlink:href="#DejaVuSans-6c"/>
     <use x="668.621094" xlink:href="#DejaVuSans-69"/>
     <use x="696.404297" xlink:href="#DejaVuSans-7a"/>
     <use x="748.894531" xlink:href="#DejaVuSans-65"/>
     <use x="810.417969" xlink:href="#DejaVuSans-64"/>
     <use x="873.894531" xlink:href="#DejaVuSans-29"/>
    </g>
   </g>
   <g id="Line3DCollection_3">
    <path d="M 382.305592 174.808819 
L 180.635647 135.838001 
L 56.083769 205.561083 
" style="fill:none;stroke:#b0b0b0;stroke-width:0.8;"/>
    <path d="M 383.985084 146.951065 
L 180.222599 108.764211 
L 54.291181 177.108259 
" style="fill:none;stroke:#b0b0b0;stroke-width:0.8;"/>
    <path d="M 385.700103 118.504013 
L 179.801185 81.1421 
L 52.459396 148.033288 
" style="fill:none;stroke:#b0b0b0;stroke-width:0.8;"/>
    <path d="M 387.45179 89.448763 
L 179.371149 52.954839 
L 50.587115 118.315536 
" style="fill:none;stroke:#b0b0b0;stroke-width:0.8;"/>
    <path d="M 389.241332 59.765599 
L 178.932224 24.184905 
L 48.67298 87.933451 
" style="fill:none;stroke:#b0b0b0;stroke-width:0.8;"/>
   </g>
   <g id="xtick_12">
    <g id="line2d_15">
     <path d="M 380.622531 174.483583 
L 385.675235 175.459971 
" style="fill:none;stroke:#000000;stroke-linecap:square;stroke-width:0.8;"/>
    </g>
    <g id="text_15">
     <!-- −1 -->
     <g transform="translate(394.26684 180.584836)scale(0.1 -0.1)">
      <use xlink:href="#DejaVuSans-2212"/>
      <use x="83.789062" xlink:href="#DejaVuSans-31"/>
     </g>
    </g>
   </g>
   <g id="xtick_13">
    <g id="line2d_16">
     <path d="M 382.283823 146.632234 
L 387.391203 147.589401 
" style="fill:none;stroke:#000000;stroke-linecap:square;stroke-width:0.8;"/>
    </g>
    <g id="text_16">
     <!-- 0 -->
     <g transform="translate(400.3348 152.763)scale(0.1 -0.1)">
      <use xlink:href="#DejaVuSans-30"/>
     </g>
    </g>
   </g>
   <g id="xtick_14">
    <g id="line2d_17">
     <path d="M 383.980244 118.191931 
L 389.143496 119.128842 
" style="fill:none;stroke:#000000;stroke-linecap:square;stroke-width:0.8;"/>
    </g>
    <g id="text_17">
     <!-- 1 -->
     <g transform="translate(402.252567 124.353797)scale(0.1 -0.1)">
      <use xlink:href="#DejaVuSans-31"/>
     </g>
    </g>
   </g>
   <g id="xtick_15">
    <g id="line2d_18">
     <path d="M 385.712922 89.143794 
L 390.93328 90.059359 
" style="fill:none;stroke:#000000;stroke-linecap:square;stroke-width:0.8;"/>
    </g>
    <g id="text_18">
     <!-- 2 -->
     <g transform="translate(404.211252 95.338431)scale(0.1 -0.1)">
      <use xlink:href="#DejaVuSans-32"/>
     </g>
    </g>
   </g>
   <g id="xtick_16">
    <g id="line2d_19">
     <path d="M 387.483031 59.468125 
L 392.761771 60.361197 
" style="fill:none;stroke:#000000;stroke-linecap:square;stroke-width:0.8;"/>
    </g>
    <g id="text_19">
     <!-- 3 -->
     <g transform="translate(406.212181 65.697289)scale(0.1 -0.1)">
      <use xlink:href="#DejaVuSans-33"/>
     </g>
    </g>
   </g>
  </g>
  <g id="axes_1">
   <g id="Poly3DCollection_1">
    <path clip-path="url(#pa7eab92a49)" d="M 153.426584 168.743198 
L 257.362442 83.20876 
L 82.207156 201.34875 
z
" style="fill:#144d75;fill-opacity:0.5;"/>
    <path clip-path="url(#pa7eab92a49)" d="M 257.362442 83.20876 
L 153.426584 168.743198 
L 235.601052 118.756303 
z
" style="fill:#16537e;fill-opacity:0.5;"/>
    <path clip-path="url(#pa7eab92a49)" d="M 151.973354 171.086886 
L 153.426584 168.743198 
L 82.207156 201.34875 
z
" style="fill:#144d75;fill-opacity:0.5;"/>
    <path clip-path="url(#pa7eab92a49)" d="M 82.207156 201.34875 
L 146.774738 179.470925 
L 151.973354 171.086886 
z
" style="fill:#15507a;fill-opacity:0.5;"/>
    <path clip-path="url(#pa7eab92a49)" d="M 139.384699 191.389169 
L 146.774738 179.470925 
L 82.207156 201.34875 
z
" style="fill:#15507a;fill-opacity:0.5;"/>
    <path clip-path="url(#pa7eab92a49)" d="M 221.01838 142.577309 
L 235.601052 118.756303 
L 153.426584 168.743198 
z
" style="fill:#15507a;fill-opacity:0.5;"/>
    <path clip-path="url(#pa7eab92a49)" d="M 82.207156 201.34875 
L 136.516816 196.014331 
L 139.384699 191.389169 
z
" style="fill:#144d75;fill-opacity:0.5;"/>
    <path clip-path="url(#pa7eab92a49)" d="M 235.601052 118.756303 
L 278.882586 133.21664 
L 257.362442 83.20876 
z
" style="fill:#16537e;fill-opacity:0.5;"/>
    <path clip-path="url(#pa7eab92a49)" d="M 257.362442 83.20876 
L 278.882586 133.21664 
L 312.970347 76.795254 
z
" style="fill:#15507a;fill-opacity:0.5;"/>
    <path clip-path="url(#pa7eab92a49)" d="M 82.207156 201.34875 
L 122.477811 218.655656 
L 136.516816 196.014331 
z
" style="fill:#144d75;fill-opacity:0.5;"/>
    <path clip-path="url(#pa7eab92a49)" d="M 217.766498 147.889305 
L 221.01838 142.577309 
L 153.426584 168.743198 
z
" style="fill:#15507a;fill-opacity:0.5;"/>
    <path clip-path="url(#pa7eab92a49)" d="M 153.426584 168.743198 
L 151.973354 171.086886 
L 199.031381 178.493389 
z
" style="fill:#16537e;fill-opacity:0.5;"/>
    <path clip-path="url(#pa7eab92a49)" d="M 217.766498 147.889305 
L 153.426584 168.743198 
L 214.06874 153.929645 
z
" style="fill:#15507a;fill-opacity:0.5;"/>
    <path clip-path="url(#pa7eab92a49)" d="M 151.973354 171.086886 
L 146.774738 179.470925 
L 195.387767 184.445285 
z
" style="fill:#16537e;fill-opacity:0.5;"/>
    <path clip-path="url(#pa7eab92a49)" d="M 214.06874 153.929645 
L 153.426584 168.743198 
L 209.304403 161.71226 
z
" style="fill:#16537e;fill-opacity:0.5;"/>
    <path clip-path="url(#pa7eab92a49)" d="M 208.185196 163.540499 
L 209.304403 161.71226 
L 153.426584 168.743198 
z
" style="fill:#16537e;fill-opacity:0.5;"/>
    <path clip-path="url(#pa7eab92a49)" d="M 153.426584 168.743198 
L 205.354936 168.16377 
L 208.185196 163.540499 
z
" style="fill:#16537e;fill-opacity:0.5;"/>
    <path clip-path="url(#pa7eab92a49)" d="M 235.601052 118.756303 
L 221.01838 142.577309 
L 277.982072 134.707154 
z
" style="fill:#16537e;fill-opacity:0.5;"/>
    <path clip-path="url(#pa7eab92a49)" d="M 202.284299 173.1797 
L 205.354936 168.16377 
L 153.426584 168.743198 
z
" style="fill:#16537e;fill-opacity:0.5;"/>
    <path clip-path="url(#pa7eab92a49)" d="M 146.774738 179.470925 
L 139.384699 191.389169 
L 188.467456 195.749712 
z
" style="fill:#15507a;fill-opacity:0.5;"/>
    <path clip-path="url(#pa7eab92a49)" d="M 199.031381 178.493389 
L 202.284299 173.1797 
L 153.426584 168.743198 
z
" style="fill:#16537e;fill-opacity:0.5;"/>
    <path clip-path="url(#pa7eab92a49)" d="M 199.031381 178.493389 
L 151.973354 171.086886 
L 195.387767 184.445285 
z
" style="fill:#16537e;fill-opacity:0.5;"/>
    <path clip-path="url(#pa7eab92a49)" d="M 136.516816 196.014331 
L 183.880405 203.242726 
L 139.384699 191.389169 
z
" style="fill:#16537e;fill-opacity:0.5;"/>
    <path clip-path="url(#pa7eab92a49)" d="M 278.882586 133.21664 
L 235.601052 118.756303 
L 277.982072 134.707154 
z
" style="fill:#165683;fill-opacity:0.5;"/>
    <path clip-path="url(#pa7eab92a49)" d="M 312.970347 76.795254 
L 278.882586 133.21664 
L 367.626268 73.237321 
z
" style="fill:#16537e;fill-opacity:0.5;"/>
    <path clip-path="url(#pa7eab92a49)" d="M 217.766498 147.889305 
L 265.360649 155.597884 
L 221.01838 142.577309 
z
" style="fill:#16537e;fill-opacity:0.5;"/>
    <path clip-path="url(#pa7eab92a49)" d="M 195.387767 184.445285 
L 146.774738 179.470925 
L 190.549026 192.349438 
z
" style="fill:#16537e;fill-opacity:0.5;"/>
    <path clip-path="url(#pa7eab92a49)" d="M 214.06874 153.929645 
L 265.360649 155.597884 
L 217.766498 147.889305 
z
" style="fill:#144d75;fill-opacity:0.5;"/>
    <path clip-path="url(#pa7eab92a49)" d="M 190.430137 192.543645 
L 190.549026 192.349438 
L 146.774738 179.470925 
z
" style="fill:#175987;fill-opacity:0.5;"/>
    <path clip-path="url(#pa7eab92a49)" d="M 146.774738 179.470925 
L 188.467456 195.749712 
L 190.430137 192.543645 
z
" style="fill:#15507a;fill-opacity:0.5;"/>
    <path clip-path="url(#pa7eab92a49)" d="M 122.477811 218.655656 
L 175.513444 216.910278 
L 136.516816 196.014331 
z
" style="fill:#144d75;fill-opacity:0.5;"/>
    <path clip-path="url(#pa7eab92a49)" d="M 188.467456 195.749712 
L 139.384699 191.389169 
L 187.277019 197.694307 
z
" style="fill:#16537e;fill-opacity:0.5;"/>
    <path clip-path="url(#pa7eab92a49)" d="M 187.277019 197.694307 
L 139.384699 191.389169 
L 186.205024 199.445428 
z
" style="fill:#16537e;fill-opacity:0.5;"/>
    <path clip-path="url(#pa7eab92a49)" d="M 277.982072 134.707154 
L 221.01838 142.577309 
L 266.588446 153.565659 
z
" style="fill:#16537e;fill-opacity:0.5;"/>
    <path clip-path="url(#pa7eab92a49)" d="M 209.304403 161.71226 
L 257.537453 168.546683 
L 214.06874 153.929645 
z
" style="fill:#15507a;fill-opacity:0.5;"/>
    <path clip-path="url(#pa7eab92a49)" d="M 139.384699 191.389169 
L 185.579429 200.467346 
L 186.205024 199.445428 
z
" style="fill:#16537e;fill-opacity:0.5;"/>
    <path clip-path="url(#pa7eab92a49)" d="M 185.281458 200.954085 
L 185.579429 200.467346 
L 139.384699 191.389169 
z
" style="fill:#165683;fill-opacity:0.5;"/>
    <path clip-path="url(#pa7eab92a49)" d="M 185.281458 200.954085 
L 139.384699 191.389169 
L 183.880405 203.242726 
z
" style="fill:#16537e;fill-opacity:0.5;"/>
    <path clip-path="url(#pa7eab92a49)" d="M 253.481825 175.259477 
L 209.304403 161.71226 
L 208.185196 163.540499 
z
" style="fill:#16537e;fill-opacity:0.5;"/>
    <path clip-path="url(#pa7eab92a49)" d="M 367.626268 73.237321 
L 278.882586 133.21664 
L 277.982072 134.707154 
z
" style="fill:#134a71;fill-opacity:0.5;"/>
    <path clip-path="url(#pa7eab92a49)" d="M 180.537789 208.702938 
L 183.880405 203.242726 
L 136.516816 196.014331 
z
" style="fill:#15507a;fill-opacity:0.5;"/>
    <path clip-path="url(#pa7eab92a49)" d="M 266.588446 153.565659 
L 221.01838 142.577309 
L 265.360649 155.597884 
z
" style="fill:#16537e;fill-opacity:0.5;"/>
    <path clip-path="url(#pa7eab92a49)" d="M 208.185196 163.540499 
L 205.354936 168.16377 
L 253.481825 175.259477 
z
" style="fill:#16537e;fill-opacity:0.5;"/>
    <path clip-path="url(#pa7eab92a49)" d="M 180.537789 208.702938 
L 136.516816 196.014331 
L 179.671385 210.118221 
z
" style="fill:#165683;fill-opacity:0.5;"/>
    <path clip-path="url(#pa7eab92a49)" d="M 179.671385 210.118221 
L 136.516816 196.014331 
L 179.581736 210.264664 
z
" style="fill:#1f77b4;fill-opacity:0.5;"/>
    <path clip-path="url(#pa7eab92a49)" d="M 178.595331 211.875971 
L 179.581736 210.264664 
L 136.516816 196.014331 
z
" style="fill:#15507a;fill-opacity:0.5;"/>
    <path clip-path="url(#pa7eab92a49)" d="M 178.595331 211.875971 
L 136.516816 196.014331 
L 178.505634 212.022492 
z
" style="fill:#1c6ba2;fill-opacity:0.5;"/>
    <path clip-path="url(#pa7eab92a49)" d="M 175.513444 216.910278 
L 178.505634 212.022492 
L 136.516816 196.014331 
z
" style="fill:#15507a;fill-opacity:0.5;"/>
    <path clip-path="url(#pa7eab92a49)" d="M 277.982072 134.707154 
L 266.588446 153.565659 
L 367.626268 73.237321 
z
" style="fill:#144d75;fill-opacity:0.5;"/>
    <path clip-path="url(#pa7eab92a49)" d="M 249.889477 181.205461 
L 205.354936 168.16377 
L 202.284299 173.1797 
z
" style="fill:#16537e;fill-opacity:0.5;"/>
    <path clip-path="url(#pa7eab92a49)" d="M 214.06874 153.929645 
L 257.537453 168.546683 
L 265.360649 155.597884 
z
" style="fill:#15507a;fill-opacity:0.5;"/>
    <path clip-path="url(#pa7eab92a49)" d="M 246.94006 186.087277 
L 202.284299 173.1797 
L 199.031381 178.493389 
z
" style="fill:#16537e;fill-opacity:0.5;"/>
    <path clip-path="url(#pa7eab92a49)" d="M 367.626268 73.237321 
L 266.588446 153.565659 
L 265.360649 155.597884 
z
" style="fill:#16537e;fill-opacity:0.5;"/>
    <path clip-path="url(#pa7eab92a49)" d="M 199.031381 178.493389 
L 195.387767 184.445285 
L 243.128817 192.395572 
z
" style="fill:#16537e;fill-opacity:0.5;"/>
    <path clip-path="url(#pa7eab92a49)" d="M 265.360649 155.597884 
L 257.537453 168.546683 
L 367.626268 73.237321 
z
" style="fill:#144d75;fill-opacity:0.5;"/>
    <path clip-path="url(#pa7eab92a49)" d="M 209.304403 161.71226 
L 253.481825 175.259477 
L 257.537453 168.546683 
z
" style="fill:#15507a;fill-opacity:0.5;"/>
    <path clip-path="url(#pa7eab92a49)" d="M 243.128817 192.395572 
L 195.387767 184.445285 
L 190.549026 192.349438 
z
" style="fill:#16537e;fill-opacity:0.5;"/>
    <path clip-path="url(#pa7eab92a49)" d="M 253.481825 175.259477 
L 205.354936 168.16377 
L 252.599066 176.720604 
z
" style="fill:#15507a;fill-opacity:0.5;"/>
    <path clip-path="url(#pa7eab92a49)" d="M 367.626268 73.237321 
L 257.537453 168.546683 
L 253.481825 175.259477 
z
" style="fill:#16537e;fill-opacity:0.5;"/>
    <path clip-path="url(#pa7eab92a49)" d="M 243.128817 192.395572 
L 190.549026 192.349438 
L 190.430137 192.543645 
z
" style="fill:#16537e;fill-opacity:0.5;"/>
    <path clip-path="url(#pa7eab92a49)" d="M 252.599066 176.720604 
L 205.354936 168.16377 
L 249.889477 181.205461 
z
" style="fill:#15507a;fill-opacity:0.5;"/>
    <path clip-path="url(#pa7eab92a49)" d="M 190.430137 192.543645 
L 188.467456 195.749712 
L 243.128817 192.395572 
z
" style="fill:#16537e;fill-opacity:0.5;"/>
    <path clip-path="url(#pa7eab92a49)" d="M 367.626268 73.237321 
L 253.481825 175.259477 
L 252.599066 176.720604 
z
" style="fill:#144d75;fill-opacity:0.5;"/>
    <path clip-path="url(#pa7eab92a49)" d="M 188.467456 195.749712 
L 187.277019 197.694307 
L 243.128817 192.395572 
z
" style="fill:#16537e;fill-opacity:0.5;"/>
    <path clip-path="url(#pa7eab92a49)" d="M 243.128817 192.395572 
L 187.277019 197.694307 
L 186.205024 199.445428 
z
" style="fill:#16537e;fill-opacity:0.5;"/>
    <path clip-path="url(#pa7eab92a49)" d="M 252.599066 176.720604 
L 249.889477 181.205461 
L 367.626268 73.237321 
z
" style="fill:#16537e;fill-opacity:0.5;"/>
    <path clip-path="url(#pa7eab92a49)" d="M 202.284299 173.1797 
L 248.267841 183.88956 
L 249.889477 181.205461 
z
" style="fill:#16537e;fill-opacity:0.5;"/>
    <path clip-path="url(#pa7eab92a49)" d="M 186.205024 199.445428 
L 185.579429 200.467346 
L 243.128817 192.395572 
z
" style="fill:#16537e;fill-opacity:0.5;"/>
    <path clip-path="url(#pa7eab92a49)" d="M 243.128817 192.395572 
L 185.579429 200.467346 
L 185.281458 200.954085 
z
" style="fill:#15507a;fill-opacity:0.5;"/>
    <path clip-path="url(#pa7eab92a49)" d="M 202.284299 173.1797 
L 247.589309 185.012654 
L 248.267841 183.88956 
z
" style="fill:#15507a;fill-opacity:0.5;"/>
    <path clip-path="url(#pa7eab92a49)" d="M 185.281458 200.954085 
L 183.880405 203.242726 
L 243.128817 192.395572 
z
" style="fill:#16537e;fill-opacity:0.5;"/>
    <path clip-path="url(#pa7eab92a49)" d="M 246.94006 186.087277 
L 247.589309 185.012654 
L 202.284299 173.1797 
z
" style="fill:#16537e;fill-opacity:0.5;"/>
    <path clip-path="url(#pa7eab92a49)" d="M 367.626268 73.237321 
L 249.889477 181.205461 
L 248.267841 183.88956 
z
" style="fill:#15507a;fill-opacity:0.5;"/>
    <path clip-path="url(#pa7eab92a49)" d="M 367.626268 73.237321 
L 248.267841 183.88956 
L 247.589309 185.012654 
z
" style="fill:#165683;fill-opacity:0.5;"/>
    <path clip-path="url(#pa7eab92a49)" d="M 243.128817 192.395572 
L 183.880405 203.242726 
L 180.537789 208.702938 
z
" style="fill:#16537e;fill-opacity:0.5;"/>
    <path clip-path="url(#pa7eab92a49)" d="M 247.589309 185.012654 
L 246.94006 186.087277 
L 367.626268 73.237321 
z
" style="fill:#144d75;fill-opacity:0.5;"/>
    <path clip-path="url(#pa7eab92a49)" d="M 199.031381 178.493389 
L 244.340937 190.389295 
L 246.94006 186.087277 
z
" style="fill:#15507a;fill-opacity:0.5;"/>
    <path clip-path="url(#pa7eab92a49)" d="M 367.626268 73.237321 
L 246.94006 186.087277 
L 244.340937 190.389295 
z
" style="fill:#15507a;fill-opacity:0.5;"/>
    <path clip-path="url(#pa7eab92a49)" d="M 180.537789 208.702938 
L 179.671385 210.118221 
L 243.128817 192.395572 
z
" style="fill:#15507a;fill-opacity:0.5;"/>
    <path clip-path="url(#pa7eab92a49)" d="M 243.128817 192.395572 
L 179.671385 210.118221 
L 179.581736 210.264664 
z
" style="fill:#103c5a;fill-opacity:0.5;"/>
    <path clip-path="url(#pa7eab92a49)" d="M 243.128817 192.395572 
L 179.581736 210.264664 
L 178.595331 211.875971 
z
" style="fill:#16537e;fill-opacity:0.5;"/>
    <path clip-path="url(#pa7eab92a49)" d="M 243.128817 192.395572 
L 244.340937 190.389295 
L 199.031381 178.493389 
z
" style="fill:#16537e;fill-opacity:0.5;"/>
    <path clip-path="url(#pa7eab92a49)" d="M 244.340937 190.389295 
L 243.128817 192.395572 
L 367.626268 73.237321 
z
" style="fill:#15507a;fill-opacity:0.5;"/>
    <path clip-path="url(#pa7eab92a49)" d="M 178.595331 211.875971 
L 178.505634 212.022492 
L 243.128817 192.395572 
z
" style="fill:#124468;fill-opacity:0.5;"/>
    <path clip-path="url(#pa7eab92a49)" d="M 178.505634 212.022492 
L 175.513444 216.910278 
L 243.128817 192.395572 
z
" style="fill:#16537e;fill-opacity:0.5;"/>
   </g>
   <g id="Path3DCollection_1">
    <defs>
     <path d="M 0 2.236068 
C 0.593012 2.236068 1.161816 2.000462 1.581139 1.581139 
C 2.000462 1.161816 2.236068 0.593012 2.236068 0 
C 2.236068 -0.593012 2.000462 -1.161816 1.581139 -1.581139 
C 1.161816 -2.000462 0.593012 -2.236068 0 -2.236068 
C -0.593012 -2.236068 -1.161816 -2.000462 -1.581139 -1.581139 
C -2.000462 -1.161816 -2.236068 -0.593012 -2.236068 0 
C -2.236068 0.593012 -2.000462 1.161816 -1.581139 1.581139 
C -1.161816 2.000462 -0.593012 2.236068 0 2.236068 
z
" id="C0_0_a1ba4328d8"/>
    </defs>
    <g clip-path="url(#pa7eab92a49)">
     <use style="fill:#008000;fill-opacity:0.652964;stroke:#008000;stroke-opacity:0.652964;" x="205.29102" xlink:href="#C0_0_a1ba4328d8" y="157.816737"/>
    </g>
    <g clip-path="url(#pa7eab92a49)">
     <use style="fill:#008000;fill-opacity:0.720138;stroke:#008000;stroke-opacity:0.720138;" x="190.3151" xlink:href="#C0_0_a1ba4328d8" y="182.859659"/>
    </g>
    <g clip-path="url(#pa7eab92a49)">
     <use style="fill:#008000;fill-opacity:0.495936;stroke:#008000;stroke-opacity:0.495936;" x="214.08578" xlink:href="#C0_0_a1ba4328d8" y="159.812988"/>
    </g>
    <g clip-path="url(#pa7eab92a49)">
     <use style="fill:#008000;fill-opacity:0.437581;stroke:#008000;stroke-opacity:0.437581;" x="139.624154" xlink:href="#C0_0_a1ba4328d8" y="199.070916"/>
    </g>
    <g clip-path="url(#pa7eab92a49)">
     <use style="fill:#008000;fill-opacity:0.749807;stroke:#008000;stroke-opacity:0.749807;" x="278.31383" xlink:href="#C0_0_a1ba4328d8" y="118.74224"/>
    </g>
    <g clip-path="url(#pa7eab92a49)">
     <use style="fill:#008000;fill-opacity:0.720699;stroke:#008000;stroke-opacity:0.720699;" x="248.184634" xlink:href="#C0_0_a1ba4328d8" y="192.240564"/>
    </g>
    <g clip-path="url(#pa7eab92a49)">
     <use style="fill:#008000;fill-opacity:0.719257;stroke:#008000;stroke-opacity:0.719257;" x="188.363115" xlink:href="#C0_0_a1ba4328d8" y="187.492762"/>
    </g>
    <g clip-path="url(#pa7eab92a49)">
     <use style="fill:#008000;fill-opacity:0.566639;stroke:#008000;stroke-opacity:0.566639;" x="185.487573" xlink:href="#C0_0_a1ba4328d8" y="215.813927"/>
    </g>
    <g clip-path="url(#pa7eab92a49)">
     <use style="fill:#008000;fill-opacity:0.604887;stroke:#008000;stroke-opacity:0.604887;" x="184.031758" xlink:href="#C0_0_a1ba4328d8" y="213.742631"/>
    </g>
    <g clip-path="url(#pa7eab92a49)">
     <use style="fill:#008000;fill-opacity:0.613945;stroke:#008000;stroke-opacity:0.613945;" x="187.369402" xlink:href="#C0_0_a1ba4328d8" y="204.74796"/>
    </g>
    <g clip-path="url(#pa7eab92a49)">
     <use style="fill:#008000;fill-opacity:0.637778;stroke:#008000;stroke-opacity:0.637778;" x="246.744575" xlink:href="#C0_0_a1ba4328d8" y="206.727431"/>
    </g>
    <g clip-path="url(#pa7eab92a49)">
     <use style="fill:#008000;fill-opacity:0.60335;stroke:#008000;stroke-opacity:0.60335;" x="202.2744" xlink:href="#C0_0_a1ba4328d8" y="171.831433"/>
    </g>
    <g clip-path="url(#pa7eab92a49)">
     <use style="fill:#008000;fill-opacity:0.615057;stroke:#008000;stroke-opacity:0.615057;" x="199.024349" xlink:href="#C0_0_a1ba4328d8" y="177.673926"/>
    </g>
    <g clip-path="url(#pa7eab92a49)">
     <use style="fill:#008000;fill-opacity:0.667846;stroke:#008000;stroke-opacity:0.667846;" x="368.04748" xlink:href="#C0_0_a1ba4328d8" y="65.253723"/>
    </g>
    <g clip-path="url(#pa7eab92a49)">
     <use style="fill:#008000;fill-opacity:0.724784;stroke:#008000;stroke-opacity:0.724784;" x="180.478283" xlink:href="#C0_0_a1ba4328d8" y="204.916781"/>
    </g>
    <g clip-path="url(#pa7eab92a49)">
     <use style="fill:#008000;fill-opacity:0.856366;stroke:#008000;stroke-opacity:0.856366;" x="257.760673" xlink:href="#C0_0_a1ba4328d8" y="151.864774"/>
    </g>
    <g clip-path="url(#pa7eab92a49)">
     <use style="fill:#008000;fill-opacity:0.582396;stroke:#008000;stroke-opacity:0.582396;" x="136.173459" xlink:href="#C0_0_a1ba4328d8" y="185.388278"/>
    </g>
    <g clip-path="url(#pa7eab92a49)">
     <use style="fill:#008000;fill-opacity:0.636961;stroke:#008000;stroke-opacity:0.636961;" x="179.724438" xlink:href="#C0_0_a1ba4328d8" y="219.133617"/>
    </g>
    <g clip-path="url(#pa7eab92a49)">
     <use style="fill:#008000;fill-opacity:0.826617;stroke:#008000;stroke-opacity:0.826617;" x="266.902159" xlink:href="#C0_0_a1ba4328d8" y="134.757637"/>
    </g>
    <g clip-path="url(#pa7eab92a49)">
     <use style="fill:#008000;fill-opacity:0.837526;stroke:#008000;stroke-opacity:0.837526;" x="279.494729" xlink:href="#C0_0_a1ba4328d8" y="104.208013"/>
    </g>
    <g clip-path="url(#pa7eab92a49)">
     <use style="fill:#008000;fill-opacity:0.532887;stroke:#008000;stroke-opacity:0.532887;" x="195.517425" xlink:href="#C0_0_a1ba4328d8" y="197.445614"/>
    </g>
    <g clip-path="url(#pa7eab92a49)">
     <use style="fill:#008000;fill-opacity:0.308427;stroke:#008000;stroke-opacity:0.308427;" x="153.856616" xlink:href="#C0_0_a1ba4328d8" y="185.512614"/>
    </g>
    <g clip-path="url(#pa7eab92a49)">
     <use style="fill:#008000;fill-opacity:0.574985;stroke:#008000;stroke-opacity:0.574985;" x="190.671005" xlink:href="#C0_0_a1ba4328d8" y="202.657633"/>
    </g>
    <g clip-path="url(#pa7eab92a49)">
     <use style="fill:#008000;fill-opacity:0.66269;stroke:#008000;stroke-opacity:0.66269;" x="247.426268" xlink:href="#C0_0_a1ba4328d8" y="201.799972"/>
    </g>
    <g clip-path="url(#pa7eab92a49)">
     <use style="fill:#008000;fill-opacity:0.3;stroke:#008000;stroke-opacity:0.3;" x="257.302661" xlink:href="#C0_0_a1ba4328d8" y="87.841949"/>
    </g>
    <g clip-path="url(#pa7eab92a49)">
     <use style="fill:#008000;fill-opacity:0.769571;stroke:#008000;stroke-opacity:0.769571;" x="175.396382" xlink:href="#C0_0_a1ba4328d8" y="210.290605"/>
    </g>
    <g clip-path="url(#pa7eab92a49)">
     <use style="fill:#008000;stroke:#008000;" x="185.591121" xlink:href="#C0_0_a1ba4328d8" y="154.01294"/>
    </g>
    <g clip-path="url(#pa7eab92a49)">
     <use style="fill:#008000;fill-opacity:0.61433;stroke:#008000;stroke-opacity:0.61433;" x="217.746284" xlink:href="#C0_0_a1ba4328d8" y="134.540807"/>
    </g>
    <g clip-path="url(#pa7eab92a49)">
     <use style="fill:#008000;fill-opacity:0.742717;stroke:#008000;stroke-opacity:0.742717;" x="208.058197" xlink:href="#C0_0_a1ba4328d8" y="138.676273"/>
    </g>
    <g clip-path="url(#pa7eab92a49)">
     <use style="fill:#008000;fill-opacity:0.301147;stroke:#008000;stroke-opacity:0.301147;" x="221.027164" xlink:href="#C0_0_a1ba4328d8" y="171.453735"/>
    </g>
    <g clip-path="url(#pa7eab92a49)">
     <use style="fill:#008000;fill-opacity:0.478315;stroke:#008000;stroke-opacity:0.478315;" x="151.809601" xlink:href="#C0_0_a1ba4328d8" y="164.839502"/>
    </g>
    <g clip-path="url(#pa7eab92a49)">
     <use style="fill:#008000;fill-opacity:0.300216;stroke:#008000;stroke-opacity:0.300216;" x="82.721254" xlink:href="#C0_0_a1ba4328d8" y="211.05093"/>
    </g>
    <g clip-path="url(#pa7eab92a49)">
     <use style="fill:#008000;fill-opacity:0.725596;stroke:#008000;stroke-opacity:0.725596;" x="249.819753" xlink:href="#C0_0_a1ba4328d8" y="187.805299"/>
    </g>
    <g clip-path="url(#pa7eab92a49)">
     <use style="fill:#008000;fill-opacity:0.576444;stroke:#008000;stroke-opacity:0.576444;" x="235.703881" xlink:href="#C0_0_a1ba4328d8" y="98.451399"/>
    </g>
    <g clip-path="url(#pa7eab92a49)">
     <use style="fill:#008000;fill-opacity:0.760979;stroke:#008000;stroke-opacity:0.760979;" x="243.078774" xlink:href="#C0_0_a1ba4328d8" y="198.610318"/>
    </g>
    <g clip-path="url(#pa7eab92a49)">
     <use style="fill:#008000;fill-opacity:0.646751;stroke:#008000;stroke-opacity:0.646751;" x="185.629474" xlink:href="#C0_0_a1ba4328d8" y="204.105702"/>
    </g>
    <g clip-path="url(#pa7eab92a49)">
     <use style="fill:#008000;fill-opacity:0.685497;stroke:#008000;stroke-opacity:0.685497;" x="179.706108" xlink:href="#C0_0_a1ba4328d8" y="212.280998"/>
    </g>
    <g clip-path="url(#pa7eab92a49)">
     <use style="fill:#008000;fill-opacity:0.742145;stroke:#008000;stroke-opacity:0.742145;" x="252.570088" xlink:href="#C0_0_a1ba4328d8" y="179.226156"/>
    </g>
    <g clip-path="url(#pa7eab92a49)">
     <use style="fill:#008000;fill-opacity:0.329651;stroke:#008000;stroke-opacity:0.329651;" x="312.31026" xlink:href="#C0_0_a1ba4328d8" y="96.78416"/>
    </g>
    <g clip-path="url(#pa7eab92a49)">
     <use style="fill:#008000;fill-opacity:0.635019;stroke:#008000;stroke-opacity:0.635019;" x="253.282774" xlink:href="#C0_0_a1ba4328d8" y="191.999519"/>
    </g>
    <g clip-path="url(#pa7eab92a49)">
     <use style="fill:#008000;fill-opacity:0.57121;stroke:#008000;stroke-opacity:0.57121;" x="146.326727" xlink:href="#C0_0_a1ba4328d8" y="163.612639"/>
    </g>
    <g clip-path="url(#pa7eab92a49)">
     <use style="fill:#008000;fill-opacity:0.490116;stroke:#008000;stroke-opacity:0.490116;" x="209.350618" xlink:href="#C0_0_a1ba4328d8" y="171.575243"/>
    </g>
    <g clip-path="url(#pa7eab92a49)">
     <use style="fill:#008000;fill-opacity:0.533619;stroke:#008000;stroke-opacity:0.533619;" x="264.986923" xlink:href="#C0_0_a1ba4328d8" y="178.618414"/>
    </g>
    <g clip-path="url(#pa7eab92a49)">
     <use style="fill:#008000;fill-opacity:0.815141;stroke:#008000;stroke-opacity:0.815141;" x="178.26093" xlink:href="#C0_0_a1ba4328d8" y="197.201705"/>
    </g>
    <g clip-path="url(#pa7eab92a49)">
     <use style="fill:#008000;fill-opacity:0.553907;stroke:#008000;stroke-opacity:0.553907;" x="122.569265" xlink:href="#C0_0_a1ba4328d8" y="221.065184"/>
    </g>
    <g clip-path="url(#pa7eab92a49)">
     <use style="fill:#008000;fill-opacity:0.769358;stroke:#008000;stroke-opacity:0.769358;" x="244.304691" xlink:href="#C0_0_a1ba4328d8" y="194.651382"/>
    </g>
    <g clip-path="url(#pa7eab92a49)">
     <use style="fill:#008000;fill-opacity:0.714551;stroke:#008000;stroke-opacity:0.714551;" x="178.576967" xlink:href="#C0_0_a1ba4328d8" y="210.761381"/>
    </g>
   </g>
   <g id="text_20">
    <!-- Best fit plane between area, bedrooms, and prices -->
    <defs>
     <path d="M 18.3125 70.21875 
L 18.3125 54.6875 
L 36.8125 54.6875 
L 36.8125 47.703125 
L 18.3125 47.703125 
L 18.3125 18.015625 
Q 18.3125 11.328125 20.140625 9.421875 
Q 21.96875 7.515625 27.59375 7.515625 
L 36.8125 7.515625 
L 36.8125 0 
L 27.59375 0 
Q 17.1875 0 13.234375 3.875 
Q 9.28125 7.765625 9.28125 18.015625 
L 9.28125 47.703125 
L 2.6875 47.703125 
L 2.6875 54.6875 
L 9.28125 54.6875 
L 9.28125 70.21875 
z
" id="DejaVuSans-74"/>
     <path d="M 37.109375 75.984375 
L 37.109375 68.5 
L 28.515625 68.5 
Q 23.6875 68.5 21.796875 66.546875 
Q 19.921875 64.59375 19.921875 59.515625 
L 19.921875 54.6875 
L 34.71875 54.6875 
L 34.71875 47.703125 
L 19.921875 47.703125 
L 19.921875 0 
L 10.890625 0 
L 10.890625 47.703125 
L 2.296875 47.703125 
L 2.296875 54.6875 
L 10.890625 54.6875 
L 10.890625 58.5 
Q 10.890625 67.625 15.140625 71.796875 
Q 19.390625 75.984375 28.609375 75.984375 
z
" id="DejaVuSans-66"/>
     <path d="M 18.109375 8.203125 
L 18.109375 -20.796875 
L 9.078125 -20.796875 
L 9.078125 54.6875 
L 18.109375 54.6875 
L 18.109375 46.390625 
Q 20.953125 51.265625 25.265625 53.625 
Q 29.59375 56 35.59375 56 
Q 45.5625 56 51.78125 48.09375 
Q 58.015625 40.1875 58.015625 27.296875 
Q 58.015625 14.40625 51.78125 6.484375 
Q 45.5625 -1.421875 35.59375 -1.421875 
Q 29.59375 -1.421875 25.265625 0.953125 
Q 20.953125 3.328125 18.109375 8.203125 
z
M 48.6875 27.296875 
Q 48.6875 37.203125 44.609375 42.84375 
Q 40.53125 48.484375 33.40625 48.484375 
Q 26.265625 48.484375 22.1875 42.84375 
Q 18.109375 37.203125 18.109375 27.296875 
Q 18.109375 17.390625 22.1875 11.75 
Q 26.265625 6.109375 33.40625 6.109375 
Q 40.53125 6.109375 44.609375 11.75 
Q 48.6875 17.390625 48.6875 27.296875 
z
" id="DejaVuSans-70"/>
     <path d="M 48.6875 27.296875 
Q 48.6875 37.203125 44.609375 42.84375 
Q 40.53125 48.484375 33.40625 48.484375 
Q 26.265625 48.484375 22.1875 42.84375 
Q 18.109375 37.203125 18.109375 27.296875 
Q 18.109375 17.390625 22.1875 11.75 
Q 26.265625 6.109375 33.40625 6.109375 
Q 40.53125 6.109375 44.609375 11.75 
Q 48.6875 17.390625 48.6875 27.296875 
z
M 18.109375 46.390625 
Q 20.953125 51.265625 25.265625 53.625 
Q 29.59375 56 35.59375 56 
Q 45.5625 56 51.78125 48.09375 
Q 58.015625 40.1875 58.015625 27.296875 
Q 58.015625 14.40625 51.78125 6.484375 
Q 45.5625 -1.421875 35.59375 -1.421875 
Q 29.59375 -1.421875 25.265625 0.953125 
Q 20.953125 3.328125 18.109375 8.203125 
L 18.109375 0 
L 9.078125 0 
L 9.078125 75.984375 
L 18.109375 75.984375 
z
" id="DejaVuSans-62"/>
     <path d="M 4.203125 54.6875 
L 13.1875 54.6875 
L 24.421875 12.015625 
L 35.59375 54.6875 
L 46.1875 54.6875 
L 57.421875 12.015625 
L 68.609375 54.6875 
L 77.59375 54.6875 
L 63.28125 0 
L 52.6875 0 
L 40.921875 44.828125 
L 29.109375 0 
L 18.5 0 
z
" id="DejaVuSans-77"/>
     <path d="M 11.71875 12.40625 
L 22.015625 12.40625 
L 22.015625 4 
L 14.015625 -11.625 
L 7.71875 -11.625 
L 11.71875 4 
z
" id="DejaVuSans-2c"/>
    </defs>
    <g transform="translate(63.882188 17.04)scale(0.12 -0.12)">
     <use xlink:href="#DejaVuSans-42"/>
     <use x="68.603516" xlink:href="#DejaVuSans-65"/>
     <use x="130.126953" xlink:href="#DejaVuSans-73"/>
     <use x="182.226562" xlink:href="#DejaVuSans-74"/>
     <use x="221.435547" xlink:href="#DejaVuSans-20"/>
     <use x="253.222656" xlink:href="#DejaVuSans-66"/>
     <use x="288.427734" xlink:href="#DejaVuSans-69"/>
     <use x="316.210938" xlink:href="#DejaVuSans-74"/>
     <use x="355.419922" xlink:href="#DejaVuSans-20"/>
     <use x="387.207031" xlink:href="#DejaVuSans-70"/>
     <use x="450.683594" xlink:href="#DejaVuSans-6c"/>
     <use x="478.466797" xlink:href="#DejaVuSans-61"/>
     <use x="539.746094" xlink:href="#DejaVuSans-6e"/>
     <use x="603.125" xlink:href="#DejaVuSans-65"/>
     <use x="664.648438" xlink:href="#DejaVuSans-20"/>
     <use x="696.435547" xlink:href="#DejaVuSans-62"/>
     <use x="759.912109" xlink:href="#DejaVuSans-65"/>
     <use x="821.435547" xlink:href="#DejaVuSans-74"/>
     <use x="860.644531" xlink:href="#DejaVuSans-77"/>
     <use x="942.431641" xlink:href="#DejaVuSans-65"/>
     <use x="1003.955078" xlink:href="#DejaVuSans-65"/>
     <use x="1065.478516" xlink:href="#DejaVuSans-6e"/>
     <use x="1128.857422" xlink:href="#DejaVuSans-20"/>
     <use x="1160.644531" xlink:href="#DejaVuSans-61"/>
     <use x="1221.923828" xlink:href="#DejaVuSans-72"/>
     <use x="1263.005859" xlink:href="#DejaVuSans-65"/>
     <use x="1324.529297" xlink:href="#DejaVuSans-61"/>
     <use x="1385.808594" xlink:href="#DejaVuSans-2c"/>
     <use x="1417.595703" xlink:href="#DejaVuSans-20"/>
     <use x="1449.382812" xlink:href="#DejaVuSans-62"/>
     <use x="1512.859375" xlink:href="#DejaVuSans-65"/>
     <use x="1574.382812" xlink:href="#DejaVuSans-64"/>
     <use x="1637.859375" xlink:href="#DejaVuSans-72"/>
     <use x="1678.941406" xlink:href="#DejaVuSans-6f"/>
     <use x="1740.123047" xlink:href="#DejaVuSans-6f"/>
     <use x="1801.304688" xlink:href="#DejaVuSans-6d"/>
     <use x="1898.716797" xlink:href="#DejaVuSans-73"/>
     <use x="1950.816406" xlink:href="#DejaVuSans-2c"/>
     <use x="1982.603516" xlink:href="#DejaVuSans-20"/>
     <use x="2014.390625" xlink:href="#DejaVuSans-61"/>
     <use x="2075.669922" xlink:href="#DejaVuSans-6e"/>
     <use x="2139.048828" xlink:href="#DejaVuSans-64"/>
     <use x="2202.525391" xlink:href="#DejaVuSans-20"/>
     <use x="2234.3125" xlink:href="#DejaVuSans-70"/>
     <use x="2297.789062" xlink:href="#DejaVuSans-72"/>
     <use x="2338.902344" xlink:href="#DejaVuSans-69"/>
     <use x="2366.685547" xlink:href="#DejaVuSans-63"/>
     <use x="2421.666016" xlink:href="#DejaVuSans-65"/>
     <use x="2483.189453" xlink:href="#DejaVuSans-73"/>
    </g>
   </g>
  </g>
 </g>
 <defs>
  <clipPath id="pa7eab92a49">
   <rect height="288" width="432" x="0" y="0"/>
  </clipPath>
 </defs>
</svg>
